<svg width="132" height="56" viewBox="0 0 132 56" fill="none" xmlns="http://www.w3.org/2000/svg">
<g clip-path="url(#clip0)">
<path d="M12.46 22.342C15.299 22.342 16.713 21.534 16.713 19.809C16.713 18.439 14.382 17.325 9.773 16.517C3.843 15.452 0.808 12.817 0.753 8.61101C0.753 2.83401 5.318 0.0990074 11.444 0.00100738C14.3552 -0.155087 17.2374 0.64642 19.65 2.28301C20.6315 3.06948 21.4268 4.06332 21.979 5.19331C22.5312 6.32329 22.8266 7.56144 22.844 8.81901H18.591C17.019 8.77001 16.008 8.21301 15.604 7.14801C15.145 5.98501 13.78 5.32401 11.553 5.32401C8.916 5.32401 7.6 6.03401 7.6 7.39901C7.6 8.76401 9.32 9.82901 12.82 10.489C17.379 11.401 20.371 12.564 21.84 13.934C22.4511 14.5646 22.9313 15.31 23.2528 16.1271C23.5742 16.9443 23.7307 17.8171 23.713 18.695C23.713 25.28 18.548 27.715 11.45 27.715C7.699 27.715 4.865 26.907 3.042 25.334C1.016 23.817 0 21.49 0 18.39H6.891C7.038 21.327 9.167 22.342 12.46 22.342ZM96.768 0.390008L90.991 20.426L86.023 2.93201C85.8262 2.16528 85.3675 1.49149 84.7263 1.02727C84.0852 0.563051 83.3019 0.337624 82.512 0.390008H76.948L86.771 28.176H94.934L104.707 0.390008H96.768ZM126.836 0.401007C126.194 0.339723 125.549 0.49147 125.001 0.832846C124.454 1.17422 124.034 1.68627 123.806 2.29001L118.614 17.698L113.667 0.398007H106.012L115.13 26.59C115.217 26.879 115.277 27.152 115.33 27.414C115.24 27.9837 115.064 28.5362 114.806 29.052C113.627 32.465 110.929 35.637 108.412 38.165C102.653 43.9428 95.0742 47.5541 86.9588 48.3879C78.8434 49.2217 70.689 47.227 63.875 42.741C58.2476 39.0281 53.8007 33.7817 51.06 27.622C48.188 21.122 48.15 14.354 48.15 7.39301C48.003 2.43001 44.25 7.45431e-06 36.85 7.45431e-06C30.669 7.45431e-06 27.175 2.43001 26.361 7.40001H33.099C33.46 6.13201 34.775 5.52601 37.16 5.52601C39.945 5.52601 41.36 6.28501 41.517 7.80801C41.517 9.27701 40.048 10.139 37.16 10.494C30.373 11.155 25.71 12.875 25.56 19.312C25.56 25.242 30.021 28.228 36.453 27.72C38.8289 27.6312 41.1567 27.0236 43.273 25.94C45.9579 34.462 51.2923 41.9047 58.4999 47.1852C65.7075 52.4656 74.4121 55.3081 83.347 55.299C90.6814 55.305 97.8895 53.3909 104.255 49.747C110.62 46.1032 115.92 40.8566 119.629 34.529C122.162 30.199 123.418 25.258 124.969 20.513C126.612 15.4843 128.256 10.4537 129.899 5.42101C130.008 5.08801 131.269 0.403008 131.537 0.403008H126.837L126.836 0.401007ZM35.588 22.239C33.459 22.239 32.345 21.223 32.188 19.099C32.188 17.122 33.558 15.856 36.239 15.348C38.0069 14.9949 39.7381 14.4776 41.41 13.803C41.415 14.928 41.465 16.047 41.557 17.15C41.207 20.371 39.017 22.239 35.588 22.239ZM67.803 0.390008L62.026 20.426L57.06 2.93201C56.8631 2.16474 56.404 1.49054 55.7622 1.02627C55.1204 0.561989 54.3363 0.336899 53.546 0.390008H47.983L57.806 28.176H65.969L75.741 0.390008H67.803Z" fill="url(#paint0_linear)"/>
</g>
<defs>
<linearGradient id="paint0_linear" x1="0" y1="27.6404" x2="131.537" y2="27.6404" gradientUnits="userSpaceOnUse">
<stop stop-color="#8C38AF"/>
<stop offset="1" stop-color="#8242C6"/>
</linearGradient>
<clipPath id="clip0">
<rect width="131.538" height="55.299" fill="white"/>
</clipPath>
</defs>
</svg>
